<?xml version="1.0" standalone="no"?><!DOCTYPE svg PUBLIC "-//W3C//DTD SVG 1.1//EN" "http://www.w3.org/Graphics/SVG/1.1/DTD/svg11.dtd"><svg t="1533262288032" class="icon" style="" viewBox="0 0 1024 1024" version="1.1" xmlns="http://www.w3.org/2000/svg" p-id="5563" xmlns:xlink="http://www.w3.org/1999/xlink" width="97" height="97"><defs><style type="text/css"></style></defs><path d="M825.6 892.8 198.4 892.8C124.16 892.8 64 832.64 64 758.4L64 265.6C64 191.36 124.16 131.2 198.4 131.2L377.6 131.2 198.4 310.4l44.8 0 179.2-179.2L601.6 131.2 422.4 310.4l44.8 0 179.2-179.2L825.6 131.2 691.2 310.4l44.8 0 129.408-172.48C920.064 154.944 960 205.312 960 265.6l0 492.736C960 832.64 899.84 892.8 825.6 892.8zM870.4 355.2 153.6 355.2l0 345.28c0 56.768 48.128 102.72 107.52 102.72l501.76 0c59.392 0 107.52-46.016 107.52-102.72L870.4 355.2zM422.4 757.504 422.4 401.152l0.448-0.448L602.24 579.328l-179.456 178.624L422.4 757.504z" p-id="5564" fill="#ffffff"></path></svg>