<?xml version="1.0" standalone="no"?><!DOCTYPE svg PUBLIC "-//W3C//DTD SVG 1.1//EN" "http://www.w3.org/Graphics/SVG/1.1/DTD/svg11.dtd"><svg t="1533298747004" class="icon" style="" viewBox="0 0 1024 1024" version="1.1" xmlns="http://www.w3.org/2000/svg" p-id="6379" xmlns:xlink="http://www.w3.org/1999/xlink" width="30" height="30"><defs><style type="text/css"></style></defs><path d="M512.036549 259.243745c-99.340829 0-180.151194 79.202199-180.151194 176.569369 0 97.36717 80.810365 176.569369 180.151194 176.569369 99.30428 0 180.114645-79.202199 180.114645-176.569369C692.151194 338.445944 611.340829 259.243745 512.036549 259.243745zM512.036549 553.538209c-66.227219 0-120.137345-52.7771-120.137345-117.725095 0-64.911447 53.873577-117.725095 120.137345-117.725095 66.19067 0 120.064247 52.813649 120.064247 117.725095C632.100796 500.761109 578.227219 553.538209 512.036549 553.538209zM855.270443 174.961202c-5.628583-7.821537-11.293715-15.460328-17.433987-22.843274-1.388871-1.681265-2.777742-3.325981-4.166613-4.897598-6.396117-7.456045-13.121176-14.583146-20.028982-21.6006-3.399079-3.399079-6.542314-6.505764-9.502802-9.320056-5.628583-5.372738-11.476461-10.489631-17.433987-15.533426-1.90056-1.535068-3.325981-2.704644-3.764572-3.070136-13.084627-9.977942-31.944034-7.67534-42.141271 5.153443-6.907806 8.771817-8.077382 20.13863-3.910768 29.71453 1.790913 4.093515 4.751401 7.748438 8.515972 10.818574 1.42542 1.169576 2.741193 2.485348 4.166613 3.728022 2.302602 1.864011 5.555484 4.78795 9.722097 8.662169 4.824499 4.459007 9.502802 9.027662 14.034907 13.742513 3.654924 3.801121 7.236749 7.638791 10.745476 11.586108 2.777742 3.143234 5.628583 6.24992 8.296677 9.502802 49.88971 60.598637 79.969733 137.571332 79.969733 221.305636 0 170.75804-278.797587 466.075882-357.30535 541.915551-117.578899-115.422493-363.262876-388.262555-363.262876-541.915551 0-194.697791 161.62073-353.175286 360.265839-353.175286 10.964771 0 21.746797 0.694436 32.419174 1.644716C546.502481 60.525538 548.549238 60.671735 550.595995 60.89103c20.723418 2.119856 40.78895 6.24992 60.342792 11.732305 7.054003 2.119856 9.320056 2.814291 16.447157 5.555484 0.548239 0.219295 1.096477 0.109648 1.681265 0.292394 15.021737 4.78795 31.359246-2.3757 37.243673-16.958846 6.030624-15.167934-1.608166-32.236428-17.031945-38.157404-8.442874-3.252882-16.7761-5.957526-25.145876-8.442874-24.232145-7.346397-43.128101-10.124139-66.117571-12.46329-2.3757-0.255845-4.751401-0.438591-7.090552-0.657886-3.252882-0.255845-9.795196-0.621337-9.795196-0.47514-9.685548-0.694436-19.261448-1.46197-29.093193-1.46197-231.758718 0-420.316237 184.866046-420.316237 412.01956 0 221.269087 385.338616 588.186887 401.749224 603.647214 5.73823 5.445836 13.267373 8.296677 20.869615 8.296677 4.532106 0 9.10076-1.023379 13.340472-3.106685C544.455723 1012.523539 932.316237 636.578078 932.316237 411.909912 932.316237 323.716601 903.625085 242.065603 855.270443 174.961202z" p-id="6380" fill="#8a8a8a"></path></svg>