<?xml version="1.0" standalone="no"?><!DOCTYPE svg PUBLIC "-//W3C//DTD SVG 1.1//EN" "http://www.w3.org/Graphics/SVG/1.1/DTD/svg11.dtd"><svg t="1533348270843" class="icon" style="" viewBox="0 0 1024 1024" version="1.1" xmlns="http://www.w3.org/2000/svg" p-id="6549" xmlns:xlink="http://www.w3.org/1999/xlink" width="67" height="67"><defs><style type="text/css"></style></defs><path d="M886.409396 1023.919192 600.969369 1023.919192c-48.48467 0-87.891932-39.35339-87.891932-87.676445L513.077437 651.287568c0-48.34999 32.430857-85.65625 80.861655-85.65625l296.86086 0L886.409396 563.611123c48.457734 0 87.83806 39.326455 87.83806 87.676445l0 284.95518C974.247456 984.565802 934.86713 1023.919192 886.409396 1023.919192zM890.799952 681.374999c0-19.259188-15.703646-34.882026-34.962834-34.882026l-227.177615 0c-19.286124 0-34.962834 15.622838-34.962834 34.882026l0 226.719704c0 19.259188 15.67671 34.882026 34.962834 34.882026l227.177615 0c19.259188 0 34.962834-15.622838 34.962834-34.882026L890.799952 681.374999zM686.679491 541.362047l-204.766923-204.820795c-32.538601-32.538601-32.538601-79.191628 0-111.703292l204.766923-204.820795c32.511665-32.511665 84.06703-22.680051 116.605631 9.831614l191.676062 191.62219c32.538601 32.511665 40.619379 82.531683 8.080778 115.043347l-204.713051 204.820795C765.817247 573.873712 719.191156 573.873712 686.679491 541.362047zM779.500698 455.140142l133.386714-133.41365 19.043701-19.043701c10.531948-10.531948 10.531948-27.58239 0-38.114338l-19.043701-19.070637-133.386714-133.386714-19.043701-19.070637c-10.505012-10.531948-27.555454-10.531948-38.087402 0l-19.043701 19.070637-133.332842 133.386714-19.070637 19.070637c-10.531948 10.531948-10.531948 27.58239 0 38.114338l171.44718 171.527988c10.531948 10.531948 27.58239 10.531948 38.087402 0L779.500698 455.140142zM373.549331 1023.919192 88.055433 1023.919192C39.597699 1023.919192 0.217373 984.565802 0.217373 936.242747L0.217373 651.287568c0-48.34999 32.538601-85.65625 80.969399-85.65625l296.86086 0-4.4983-2.020195c48.430798 0 85.440763 34.85509 85.440763 83.205081l0 296.295205C458.990094 991.434463 421.980129 1023.919192 373.549331 1023.919192zM377.697464 681.96759c0-19.205316-15.649774-34.828155-34.908962-34.828155L115.961054 647.139435c-19.259188 0-34.908962 15.622838-34.908962 34.828155l0 226.423409c0 19.205316 15.649774 34.828155 34.908962 34.828155l226.827447 0c19.259188 0 34.908962-15.622838 34.908962-34.828155L377.697464 681.96759zM373.549331 512.001886 88.055433 512.001886C39.597699 512.001886 0.217373 472.675431 0.217373 424.325441L0.217373 139.370261c0-48.323054 32.538601-85.925609 80.969399-85.925609l296.86086 0L373.549331 51.693816c48.430798 0 85.440763 34.98977 85.440763 83.33976l0 296.295205C458.990094 479.678772 421.980129 512.001886 373.549331 512.001886zM378.155375 170.104155c0-19.232252-7.811419-35.824784-27.097543-35.824784L108.149635 134.279371c-19.286124 0-27.339967 16.592531-27.339967 35.824784l0 226.369537c0 19.205316 15.703646 34.828155 34.98977 34.828155l227.312294 0c19.31306 0 35.016706-15.622838 35.016706-34.828155L378.128439 170.104155z" p-id="6550"></path></svg>