<?xml version="1.0" standalone="no"?><!DOCTYPE svg PUBLIC "-//W3C//DTD SVG 1.1//EN" "http://www.w3.org/Graphics/SVG/1.1/DTD/svg11.dtd"><svg t="1533360771238" class="icon" style="" viewBox="0 0 1024 1024" version="1.1" xmlns="http://www.w3.org/2000/svg" p-id="7368" xmlns:xlink="http://www.w3.org/1999/xlink" width="80" height="80"><defs><style type="text/css"></style></defs><path d="M676.71552 97.5616L687.72864 30.72l11.01312 66.8416 66.8416 11.01312-66.8416 11.01312-11.01312 66.8416-11.01312-66.8416-66.84672-11.01312zM203.61216 757.49888l10.7008-65.00352 10.71104 65.00352 65.00352 10.70592-65.00352 10.71104-10.71104 64.9984-10.7008-64.9984-65.00864-10.71104zM826.9056 233.35424l7.24992-43.99104 7.2448 43.99104 43.99616 7.2448-43.99616 7.24992-7.2448 43.99616-7.24992-43.99616-43.99616-7.24992z" fill="#FFC800" p-id="7369"></path><path d="M321.88416 620.66688c0.36352 0.72704 0.72704 1.44384 1.08544 2.07872a237.5424 237.5424 0 0 0 9.4976 16.01536c0.36352 0.54272 0.73216 1.17248 1.1776 1.72032a312.48384 312.48384 0 0 0 10.95168 15.5648c0.09216 0.09216 0.1792 0.27136 0.3584 0.3584a231.66976 231.66976 0 0 0 26.5984 29.04576l0.45568 0.45568c4.70528 4.34176 9.68192 8.4992 14.65856 12.39552 0.27136 0.1792 0.45056 0.3584 0.72192 0.54272a219.5968 219.5968 0 0 0 69.49376 36.18816c0.09216 0 0.1792 0.09728 0.27136 0.09728 6.33344 1.89952 12.75904 3.52256 19.2768 4.88448a216.1664 216.1664 0 0 0 20.54144 3.15904c0.1792 0 0.3584 0 0.45056 0.09728a198.7584 198.7584 0 0 0 20.90496 1.09056c7.05536 0 13.93664-0.36352 20.80768-1.09056 0.1792 0 0.3584 0 0.54272-0.09728h0.01024c-83.53792-33.14176-158.88384-81.152-221.2608-129.18272 1.11104 2.24256 2.24768 4.46464 3.456 6.67648zM638.40256 892.02688a25.37472 25.37472 0 0 0-24.43264-18.64192H560.128v-91.84256c-13.66016 2.25792-27.5968 3.52768-41.89184 3.52768-14.208 0-28.2368-1.26976-41.90208-3.52768v91.66848c54.67648 35.01056 115.83488 66.688 181.36064 88.43776a26.01984 26.01984 0 0 0-1.19808-3.66592l-18.09408-65.95584zM379.07456 961.06496a25.55904 25.55904 0 0 0 4.2496 22.17472A25.37984 25.37984 0 0 0 403.50208 993.28h67.3024c-30.26432-16.7936-58.94144-35.0208-85.77024-53.74464l-5.95968 21.5296z" fill="#FFC800" p-id="7370"></path><path d="M476.3392 873.47712H422.59456a25.35424 25.35424 0 0 0-24.42752 18.64192l-13.12768 47.42144c26.8288 18.72384 55.50592 36.95104 85.77024 53.74464h162.3552c14.01856 0 25.32864-11.40224 25.32864-25.42592 0-2.15552-0.29696-4.22912-0.78848-6.20032-65.52576-21.74976-126.68416-53.43232-181.36064-88.43776v0.256z" fill="#FFDF00" p-id="7371"></path><path d="M271.12448 385.49504a43.04896 43.04896 0 0 1 10.76736-1.36192c3.26144 0 6.51264 0.45056 9.77408 1.08544v68.83328c39.65952 36.5312 89.80992 78.10048 147.72736 116.4288l22.29248-73.2416-67.31776-50.75968a7.69024 7.69024 0 0 1-2.7136-8.50944 7.46496 7.46496 0 0 1 7.06048-5.248l84.51072-1.7152 14.08512-40.23296c-68.46464-51.9168-121.94816-104.48896-154.33728-138.92608h-27.42272c-13.2096 0-23.8848 10.76736-23.8848 23.97696v67.95264a88.07424 88.07424 0 0 0-9.77408-0.54272 81.5104 81.5104 0 0 0-21.25824 2.80576c-18.35008 4.92032-33.8432 15.90784-45.72672 30.95552a1144.56576 1144.56576 0 0 0 28.36992 30.09536c7.05024-10.79296 16.47104-18.57536 27.84768-21.59616z" fill="#FFC800" p-id="7372"></path><path d="M448.83456 586.00448a7.58784 7.58784 0 0 1-8.86272-0.09216 7.552 7.552 0 0 1-2.7136-8.41728l2.13504-7.0144c-57.91744-38.3232-108.06272-79.89248-147.72736-116.4288v44.26752c0 6.88128 0.3584 13.76256 0.81408 20.4544 0.09216 0.90624 0.09216 1.80736 0.1792 2.7136 0.5376 6.42048 1.3568 12.75392 2.35008 19.00032 0.1792 1.08544 0.36352 2.17088 0.54272 3.34336 1.08544 6.2464 2.35008 12.39552 3.8912 18.37056 0.1792 0.90624 0.45568 1.90464 0.72704 2.80576 0.27136 1.08544 0.54272 2.07872 0.81408 3.08224-28.68736-4.7104-56.73472-35.38432-67.31776-75.19744-8.59648-32.512-4.02432-64.91136 9.61024-85.80608a1144.56576 1144.56576 0 0 1-28.36992-30.09536C190.7712 407.58784 181.6576 455.08096 194.39104 503.296c0.15872 0.59392 0.36352 1.152 0.53248 1.73568 29.69088 29.824 69.61152 66.92352 117.5296 104.32 1.20832-0.08704 2.42688-0.18944 3.64544-0.2816 0.75776 1.664 1.54624 3.29216 2.33984 4.91008 62.37696 48.03584 137.71776 96.04608 221.2608 129.18272a196.0192 196.0192 0 0 0 20.43392-3.15904h0.18944a222.18752 222.18752 0 0 0 19.17952-4.88448c0.09728 0 0.18432-0.09728 0.27648-0.09728 25.24672-7.68512 48.68096-20.08576 69.49376-36.18816 0.26624-0.18432 0.45056-0.36352 0.72192-0.54272a240.09728 240.09728 0 0 0 14.75072-12.39552c0.1792-0.1792 0.3584-0.27136 0.45056-0.45568 2.37056-2.19136 4.70016-4.43392 6.97856-6.72768-78.65344-20.66944-151.92064-56.70912-216.32-97.54624l-7.01952 4.8384z" fill="#FFDF00" p-id="7373"></path><path d="M735.58528 568.18688c0.27136-0.9984 0.54272-2.08384 0.81408-3.08224 0.27136-0.90624 0.5376-1.81248 0.72192-2.80064 1.54112-6.07232 2.81088-12.12928 3.89632-18.46272 0.1792-1.08544 0.3584-2.16576 0.5376-3.34336 0.7424-4.64384 1.33632-9.35936 1.83808-14.10048-45.53728-15.54944-88.91904-35.82976-129.42848-58.61888l-39.08096 29.4656 24.51968 80.256a7.6032 7.6032 0 0 1-2.80576 8.41728c-1.36192 0.9984-2.8928 1.44896-4.43392 1.44896s-3.08224-0.45056-4.34176-1.36192l-69.49376-47.9488-62.48448 43.12064c64.39936 40.83712 137.66656 76.8768 216.32 97.54624a243.87584 243.87584 0 0 0 19.72224-22.40512c0.08704-0.09216 0.17408-0.27136 0.26624-0.3584a236.98944 236.98944 0 0 0 11.0336-15.5648c0.36352-0.54272 0.73216-1.17248 1.1776-1.72032a254.80192 254.80192 0 0 0 9.4976-16.01536 43.1104 43.1104 0 0 0 1.09056-2.07872c1.99168-3.80416 3.97824-7.69536 5.79072-11.6736 2.44736 0.27136 4.98176 0.45568 7.41888 0.45568 36.22912 0 72.08448-23.65952 95.10912-61.39392a586.3936 586.3936 0 0 1-42.37824-9.99424c-12.81024 16.40448-28.94336 27.53024-45.30688 30.21312z" fill="#FFC800" p-id="7374"></path><path d="M553.97376 431.0272a56.91392 56.91392 0 0 0-1.16224-0.768l0.26112 0.75264 0.90112 0.01536z" fill="#272636" p-id="7375"></path><path d="M847.81568 451.22048a632.18176 632.18176 0 0 1-42.27072-12.43648c3.02592 16.53248 2.44736 35.29216-2.54976 54.11328-4.56704 17.16224-12.3904 32.62976-22.09792 45.06624 13.96224 3.83488 28.08832 7.18848 42.37824 9.99424a169.86624 169.86624 0 0 0 19.08736-44.83584c4.64384-17.65376 6.34368-35.21536 5.4528-51.90144z" fill="#FFDF00" p-id="7376"></path><path d="M194.9184 505.04192c17.16736 61.93152 64.99328 104.48896 113.664 104.48896 1.26976 0 2.56-0.07168 3.8656-0.16896-47.91808-37.39648-87.83872-74.496-117.5296-104.32zM744.90368 385.13152c3.26144-0.63488 6.51264-1.08544 9.76896-1.08544 3.61984 0 7.23968 0.45056 10.77248 1.36192 20.72576 5.54496 35.18464 26.50624 40.09984 53.38112 13.9008 4.61312 27.99616 8.77568 42.27072 12.43648-2.7392-51.12832-29.91616-93.9264-71.87456-105.18016a81.07008 81.07008 0 0 0-21.26336-2.80576c-3.25632 0-6.50752 0.1792-9.76896 0.54272V275.82464c0-13.2096-10.68032-23.97696-23.88992-23.97696H493.07136c65.43872 56.64768 152.26368 120.0384 251.83744 163.584v-30.30016z" fill="#FFC800" p-id="7377"></path><path d="M497.3056 390.77888l13.696-39.12704c1.08544-3.07712 3.8912-5.0688 7.14752-5.0688 3.25632 0 6.06208 2.07872 7.14752 5.0688l27.52 78.60736 1.16224 0.768 83.61472 1.70496a7.70048 7.70048 0 0 1 7.14752 5.248 7.40352 7.40352 0 0 1-2.5344 8.50944l-28.24192 21.29408c40.50944 22.79424 83.89632 43.07456 129.42848 58.61888 0.16896-1.63328 0.37376-3.25632 0.51712-4.89984 0.08704-0.91136 0.08704-1.81248 0.1792-2.7136a260.608 260.608 0 0 0 0.81408-20.54656V415.4368c-99.56864-43.5456-186.3936-106.93632-251.83744-163.584H342.97344c32.38912 34.432 85.87264 87.00416 154.33216 138.92608z" fill="#FFDF00" p-id="7378"></path></svg>