<?xml version="1.0" standalone="no"?><!DOCTYPE svg PUBLIC "-//W3C//DTD SVG 1.1//EN" "http://www.w3.org/Graphics/SVG/1.1/DTD/svg11.dtd"><svg t="1533210628608" class="icon" style="" viewBox="0 0 1024 1024" version="1.1" xmlns="http://www.w3.org/2000/svg" p-id="5386" xmlns:xlink="http://www.w3.org/1999/xlink" width="64" height="64"><defs><style type="text/css"></style></defs><path d="M260.539386 399.98481c-89.952708 0-163.123194-73.170486-163.123194-163.123194s73.170486-163.135474 163.123194-163.135474c89.966011 0 163.148777 73.183789 163.148777 163.135474S350.505397 399.98481 260.539386 399.98481zM260.539386 126.279055c-60.969607 0-110.570281 49.601698-110.570281 110.582561 0 60.969607 49.601698 110.571305 110.570281 110.571305 60.981886 0 110.595864-49.601698 110.595864-110.571305C371.136274 175.880753 321.521273 126.279055 260.539386 126.279055z" p-id="5387"></path><path d="M188.190615 249.999844c-7.262404 0-13.138228-5.875824-13.138228-13.138228l-0.051165-2.629897c-0.090051-2.758834-0.090051-4.747117 0.730641-9.045003 1.373277-7.120165 8.30106-11.740392 15.383362-10.431583 7.121188 1.373277 11.791557 8.263198 10.43056 15.383362-0.333598 1.719154-0.333598 1.719154-0.281409 3.220345l0.063445 3.501754C201.328843 244.12402 195.451996 249.999844 188.190615 249.999844z" p-id="5388"></path><path d="M200.404798 209.752188c-2.515287 0-5.054109-0.719384-7.300266-2.219551-6.030343-4.042059-7.633864-12.201903-3.605108-18.231223 15.922644-23.74889 42.48051-37.925774 71.040986-37.925774 7.262404 0 13.138228 5.875824 13.138228 13.138228 0 7.261381-5.875824 13.138228-13.138228 13.138228-19.783579 0-38.182624 9.827833-49.203632 26.276457C208.795908 207.711715 204.639239 209.752188 200.404798 209.752188z" p-id="5389"></path><path d="M628.407732 399.98481c-89.952708 0-163.123194-73.170486-163.123194-163.123194s73.170486-163.135474 163.123194-163.135474c89.964988 0 163.148777 73.183789 163.148777 163.135474S718.372719 399.98481 628.407732 399.98481zM628.407732 126.279055c-60.969607 0-110.570281 49.601698-110.570281 110.582561 0 60.969607 49.600675 110.571305 110.570281 110.571305 60.981886 0 110.595864-49.601698 110.595864-110.571305C739.003596 175.880753 689.388595 126.279055 628.407732 126.279055z" p-id="5390"></path><path d="M568.27212 209.752188c-2.514263 0-5.054109-0.719384-7.300266-2.219551-6.031367-4.042059-7.634888-12.201903-3.606131-18.231223 15.923668-23.74889 42.481534-37.925774 71.04201-37.925774 7.262404 0 13.138228 5.875824 13.138228 13.138228 0 7.261381-5.875824 13.138228-13.138228 13.138228-19.783579 0-38.181601 9.827833-49.203632 26.276457C576.66323 207.711715 572.506561 209.752188 568.27212 209.752188z" p-id="5391"></path><path d="M645.82952 944.594509 157.924287 944.594509c-51.064003 0-92.63377-33.20424-92.63377-82.421174L65.290517 518.780427c0-51.154054 43.263339-99.716073 92.63377-99.716073l487.905232 0c50.218752 0 91.070158 44.264133 91.070158 95.380324 0 0.641613-0.025583 2.592035-0.063445 3.220345l-0.655939 9.853415c38.645159-20.1182 97.741092-51.166333 139.028427-73.260537 13.920034-6.723122 25.37697-9.584286 36.000935-9.584286 13.088086 0 23.801079 4.721535 32.422434 13.522991 16.396435 16.627702 15.049764 41.261753 15.049764 51.744501l0 1.397836 0 353.503173c0 15.807011-2.257413 27.482935-8.800433 36.515658-5.556553 7.698333-17.039072 16.9613-36.015262 16.9613-0.013303 0 0.808412 0 0.808412 0-10.623965 0-21.61939-2.924609-35.474956-7.184633-1.565658-0.488117-2.874467-1.154289-4.312212-1.923816-50.293453-26.482141-104.527658-54.605665-139.438773-72.106248l1.346671 21.861914c0.039909 0.5137 0.077771-1.641383 0.077771-1.128707C736.874095 907.977543 696.894545 944.594509 645.82952 944.594509zM157.924287 471.616244c-20.515243 0-40.08188 24.8909-40.08188 47.163159l0 343.393931c0 20.400632 17.769712 29.868261 40.08188 29.868261l487.905232 0c21.363564 0 38.145785-13.163811 38.518269-33.512255l-3.875261-63.535035c-0.435928-7.236821 2.1295-13.651928 7.095605-18.911722 4.965082-5.285377 11.893888-7.9296 19.129686-7.9296 7.79964 0 13.94664 0.154519 190.681854 93.198635 2.734274 0.821715 6.64535 2.053776 10.31595 2.925632l0.024559-355.185488c0.076748-5.157463-0.127913-8.621355-0.448208-10.969842-1.962701 0.577145-4.682649 1.577938-8.275477 3.310396-181.432189 97.060593-183.729511 97.072873-192.298677 97.072873-7.287987 0-14.255679-3.027963-19.23304-8.365528-4.966105-5.338588-7.492648-12.509918-6.979972-19.783579l3.849678-56.736189c-0.435928-21.401426-17.885346-42.005696-38.503942-42.005696L157.924287 471.614198z" p-id="5392"></path><path d="M157.257092 634.623805c-7.262404 0-13.138228-5.876847-13.138228-13.137205l0-66.768683c0-24.301476 21.26021-56.825217 47.625694-56.825217l111.597681 0c7.262404 0 13.138228 5.875824 13.138228 13.138228s-5.875824 13.138228-13.138228 13.138228L191.743534 524.169157c-9.609869 0-21.349237 18.308995-21.349237 30.549783l0 66.768683C170.39532 628.746958 164.518472 634.623805 157.257092 634.623805z" p-id="5393"></path><path d="M369.031333 524.169157l-13.138228 0c-7.261381 0-13.138228-5.875824-13.138228-13.138228s5.876847-13.138228 13.138228-13.138228l13.138228 0c7.262404 0 13.138228 5.875824 13.138228 13.138228S376.293737 524.169157 369.031333 524.169157z" p-id="5394"></path></svg>