<?xml version="1.0" standalone="no"?><!DOCTYPE svg PUBLIC "-//W3C//DTD SVG 1.1//EN" "http://www.w3.org/Graphics/SVG/1.1/DTD/svg11.dtd"><svg t="1533368513279" class="icon" style="" viewBox="0 0 1024 1024" version="1.1" xmlns="http://www.w3.org/2000/svg" p-id="8692" xmlns:xlink="http://www.w3.org/1999/xlink" width="65" height="65"><defs><style type="text/css"></style></defs><path d="M511.683 907.742L131.328 527.404c-93.318-93.354-93.318-245.221 0-338.572 45.22-45.202 105.346-70.107 169.283-70.107 63.941 0 124.085 24.905 169.289 70.107l41.779 41.779 41.781-41.779c45.219-45.202 105.345-70.107 169.294-70.107 63.941 0 124.048 24.905 169.253 70.107 45.238 45.238 70.139 105.345 70.139 169.283 0 63.941-24.905 124.07-70.139 169.285L511.681 907.738zM300.617 153.427c-54.689 0-106.092 21.278-144.756 59.943-79.797 79.828-79.797 209.693 0 289.507l355.821 355.802 355.795-355.802c38.662-38.662 59.979-90.064 59.979-144.756 0-54.674-21.317-106.076-59.979-144.756-38.662-38.663-90.065-59.943-144.719-59.943-54.679 0-106.099 21.278-144.765 59.943l-66.308 66.314-66.314-66.314c-38.667-38.663-90.07-59.943-144.759-59.943z" p-id="8693" fill="#707070"></path></svg>