<?xml version="1.0" standalone="no"?><!DOCTYPE svg PUBLIC "-//W3C//DTD SVG 1.1//EN" "http://www.w3.org/Graphics/SVG/1.1/DTD/svg11.dtd"><svg t="1533294528996" class="icon" style="" viewBox="0 0 1024 1024" version="1.1" xmlns="http://www.w3.org/2000/svg" p-id="2466" xmlns:xlink="http://www.w3.org/1999/xlink" width="53" height="53"><defs><style type="text/css"></style></defs><path d="M807.617 237.097h-52.021L494.251 90.942c-11.147-6.193-26.011-2.477-33.442 9.909-7.432 11.147-2.477 26.011 8.67 32.204l188.268 104.043H213.088c-54.498 0-99.088 44.59-99.088 99.088v346.809c0 54.499 44.59 99.088 99.088 99.088h594.529c54.499 0 99.088-44.59 99.088-99.088v-346.81c0.001-54.498-44.589-99.088-99.088-99.088z m49.545 445.897c0 27.249-22.295 49.544-49.544 49.544h-594.53c-27.249 0-49.544-22.295-49.544-49.544V336.185c0-27.249 22.295-49.544 49.544-49.544h594.529c27.249 0 49.544 22.295 49.544 49.544v346.809h0.001z" p-id="2467" fill="#ffffff"></path><path d="M634.213 360.957c-81.748 0-148.632 66.885-148.632 148.632 0 81.748 66.884 148.632 148.632 148.632s148.632-66.885 148.632-148.632c0.001-81.747-66.884-148.632-148.632-148.632z m0 247.721c-54.499 0-99.088-44.59-99.088-99.088 0-54.499 44.59-99.088 99.088-99.088s99.088 44.59 99.088 99.088c0 54.498-44.589 99.088-99.088 99.088zM386.493 583.906H237.86c-13.625 0-24.772 11.147-24.772 24.772s11.147 24.772 24.772 24.772h148.632c13.625 0 24.772-11.147 24.772-24.772s-11.147-24.772-24.771-24.772zM386.493 484.818H237.86c-13.625 0-24.772 11.147-24.772 24.772 0 13.625 11.147 24.772 24.772 24.772h148.632c13.625 0 24.772-11.147 24.772-24.772 0.001-13.625-11.147-24.772-24.771-24.772zM386.493 385.729H237.86c-13.625 0-24.772 11.147-24.772 24.772 0 13.625 11.147 24.772 24.772 24.772h148.632c13.625 0 24.772-11.147 24.772-24.772 0.001-13.624-11.147-24.772-24.771-24.772z" p-id="2468" fill="#ffffff"></path></svg>