<?xml version="1.0" standalone="no"?><!DOCTYPE svg PUBLIC "-//W3C//DTD SVG 1.1//EN" "http://www.w3.org/Graphics/SVG/1.1/DTD/svg11.dtd"><svg t="1533199286523" class="icon" style="" viewBox="0 0 1024 1024" version="1.1" xmlns="http://www.w3.org/2000/svg" p-id="3821" xmlns:xlink="http://www.w3.org/1999/xlink" width="200" height="200"><defs><style type="text/css"></style></defs><path d="M893.866667 565.333333 772.266667 362.666667l121.6-202.666667 0 0C893.866667 157.866667 896 153.6 896 149.333333c0-12.8-8.533333-21.333333-21.333333-21.333333L554.666667 128 554.666667 64c0-12.8-8.533333-21.333333-21.333333-21.333333L149.333333 42.666667C136.533333 42.666667 128 51.2 128 64l0 896c0 12.8 8.533333 21.333333 21.333333 21.333333s21.333333-8.533333 21.333333-21.333333L170.666667 512l256 0 0 64c0 12.8 8.533333 21.333333 21.333333 21.333333l426.666667 0c12.8 0 21.333333-8.533333 21.333333-21.333333C896 571.733333 893.866667 567.466667 893.866667 565.333333L893.866667 565.333333zM170.666667 469.333333 170.666667 85.333333l341.333333 0 0 384L170.666667 469.333333zM469.333333 554.666667l0-42.666667 64 0c12.8 0 21.333333-8.533333 21.333333-21.333333L554.666667 170.666667l281.6 0-108.8 181.333333 0 0C727.466667 354.133333 725.333333 358.4 725.333333 362.666667c0 4.266667 2.133333 8.533333 4.266667 10.666667l0 0 108.8 181.333333L469.333333 554.666667z" p-id="3822"></path></svg>