<?xml version="1.0" standalone="no"?><!DOCTYPE svg PUBLIC "-//W3C//DTD SVG 1.1//EN" "http://www.w3.org/Graphics/SVG/1.1/DTD/svg11.dtd"><svg t="1533294644180" class="icon" style="" viewBox="0 0 1024 1024" version="1.1" xmlns="http://www.w3.org/2000/svg" p-id="4018" xmlns:xlink="http://www.w3.org/1999/xlink" width="53" height="53"><defs><style type="text/css"></style></defs><path d="M856.12 698.11c-0.76 65.82-39.45 89.28-94.3 89.28-59.17 0-68.85-25.64-82.3-39-7.3-7.25-65.61-67.43-98.75-100.31H443.06c-33.14 32.89-91.46 93.06-98.78 100.31-13.45 13.33-23.11 39-82.28 39-54.85 0-94-23.66-94.3-89.28-0.23-54.44 0-278.27 0-278.27 0-113.17 75.23-183.23 189.29-183.23h309.84c114.06 0 189.29 70.07 189.29 183.23 0 0 0.62 223.85 0 278.27z m-45.9-31V435.22c0-94.32-65.2-152.71-164-152.71H377.66c-98.85 0-164 58.38-164 152.71v231.89c0 18.36-11.73 74.38 35.82 74.38 51.27 0 59.65-21.34 71.31-32.47 6.33-6 79.84-79.13 108.55-106.53h165.19C623.24 629.88 696.75 703 703.09 709c11.64 11.13 20 32.47 71.31 32.47 47.55 0 35.82-56 35.82-74.38z m-68.8-201a22.95 22.95 0 1 1 22.95-23 23 23 0 0 1-22.95 23zM672.56 535a22.95 22.95 0 1 1 23-22.95 23 23 0 0 1-23 22.95z m0-137.72a22.95 22.95 0 1 1 23-22.93 22.94 22.94 0 0 1-23 22.93z m-68.85 68.87a22.95 22.95 0 1 1 22.95-23 23 23 0 0 1-22.95 23z m-183.6 0h-45.9V512a23 23 0 0 1-45.9 0v-45.9h-45.9a22.95 22.95 0 1 1 0-45.9h45.9v-45.9a23 23 0 1 1 45.9 0v45.9h45.9a22.95 22.95 0 1 1 0 45.9z" fill="#ffffff" p-id="4019"></path></svg>