<?xml version="1.0" standalone="no"?><!DOCTYPE svg PUBLIC "-//W3C//DTD SVG 1.1//EN" "http://www.w3.org/Graphics/SVG/1.1/DTD/svg11.dtd"><svg t="1533294317547" class="icon" style="" viewBox="0 0 1251 1024" version="1.1" xmlns="http://www.w3.org/2000/svg" p-id="1501" xmlns:xlink="http://www.w3.org/1999/xlink" width="64.7490234375" height="53"><defs><style type="text/css"></style></defs><path d="M267.377778 281.6L193.422222 204.8c-14.222222-11.377778-14.222222-34.133333 0-45.511111 14.222222-14.222222 34.133333-14.222222 48.355556 0l76.8 76.8c14.222222 14.222222 14.222222 34.133333 0 48.355555-5.688889 5.688889-14.222222 8.533333-22.755556 8.533334-11.377778-2.844444-19.911111-5.688889-28.444444-11.377778zM426.666667 201.955556l-39.822223-99.555556c-5.688889-17.066667 0-36.977778 17.066667-42.666667 17.066667-5.688889 36.977778 0 42.666667 17.066667l39.822222 99.555556c5.688889 17.066667 0 36.977778-17.066667 42.666666-2.844444 2.844444-8.533333 2.844444-11.377777 2.844445-14.222222 0-25.6-5.688889-31.288889-19.911111zM930.133333 281.6c-14.222222-14.222222-14.222222-34.133333 0-48.355556l76.8-76.8c14.222222-14.222222 34.133333-14.222222 48.355556 0s14.222222 34.133333 0 48.355556l-76.8 76.8c-5.688889 5.688889-14.222222 8.533333-22.755556 8.533333-11.377778 0-19.911111-2.844444-25.6-8.533333zM776.533333 219.022222c-17.066667-5.688889-25.6-25.6-17.066666-42.666666L796.444444 76.8c8.533333-17.066667 28.444444-25.6 45.511112-19.911111 17.066667 5.688889 25.6 25.6 17.066666 42.666667L819.2 199.111111c-5.688889 14.222222-17.066667 19.911111-31.288889 19.911111-2.844444 2.844444-8.533333 2.844444-11.377778 0zM597.333333 170.666667V45.511111c0-17.066667 14.222222-34.133333 34.133334-34.133333 17.066667 0 34.133333 14.222222 34.133333 34.133333V170.666667c0 17.066667-14.222222 34.133333-34.133333 34.133333-17.066667 0-34.133333-14.222222-34.133334-34.133333zM366.933333 640c0-142.222222 116.622222-258.844444 258.844445-258.844444 145.066667 0 258.844444 116.622222 258.844444 258.844444S768 898.844444 625.777778 898.844444s-258.844444-116.622222-258.844445-258.844444z m39.822223 0c0 122.311111 99.555556 219.022222 219.022222 219.022222 122.311111 0 219.022222-99.555556 219.022222-219.022222 0-122.311111-99.555556-219.022222-219.022222-219.022222-122.311111-2.844444-219.022222 96.711111-219.022222 219.022222z" fill="#ffffff" p-id="1502"></path><path d="M489.244444 600.177778c-11.377778-5.688889-14.222222-17.066667-11.377777-25.6 17.066667-36.977778 45.511111-65.422222 82.488889-82.488889 19.911111-8.533333 42.666667-14.222222 65.422222-14.222222 11.377778 0 19.911111 8.533333 19.911111 19.911111 0 11.377778-8.533333 19.911111-19.911111 19.911111-17.066667 0-34.133333 2.844444-48.355556 11.377778-28.444444 11.377778-51.2 34.133333-62.577778 62.577777-2.844444 8.533333-11.377778 11.377778-17.066666 11.377778-2.844444 0-5.688889 0-8.533334-2.844444zM466.488889 688.355556c-2.844444-11.377778-5.688889-22.755556-5.688889-34.133334 0-11.377778 5.688889-19.911111 17.066667-22.755555 11.377778 0 19.911111 5.688889 22.755555 17.066666 0 8.533333 2.844444 17.066667 5.688889 25.6 2.844444 11.377778-2.844444 22.755556-14.222222 25.6h-5.688889c-11.377778 2.844444-17.066667-2.844444-19.911111-11.377777z" fill="#ffffff" p-id="1503"></path><path d="M625.777778 312.888889c307.2 0 543.288889 213.333333 543.288889 318.577778 0 108.088889-236.088889 324.266667-543.288889 324.266666S82.488889 739.555556 82.488889 631.466667C82.488889 526.222222 318.577778 312.888889 625.777778 312.888889m0-56.888889C295.822222 256 25.6 483.555556 25.6 631.466667c0 147.911111 267.377778 381.155556 600.177778 381.155555s600.177778-233.244444 600.177778-381.155555S955.733333 256 625.777778 256z" fill="#ffffff" p-id="1504"></path></svg>