<?xml version="1.0" standalone="no"?><!DOCTYPE svg PUBLIC "-//W3C//DTD SVG 1.1//EN" "http://www.w3.org/Graphics/SVG/1.1/DTD/svg11.dtd"><svg t="1533294683332" class="icon" style="" viewBox="0 0 1024 1024" version="1.1" xmlns="http://www.w3.org/2000/svg" p-id="5472" xmlns:xlink="http://www.w3.org/1999/xlink" width="53" height="53"><defs><style type="text/css"></style></defs><path d="M436.8 790.4c-8 0-16-3.2-22.4-9.6l-116.8-116.8c-12.8-12.8-12.8-32 0-44.8 12.8-12.8 32-12.8 44.8 0l94.4 92.8 243.2-243.2c12.8-12.8 32-12.8 44.8 0 12.8 12.8 12.8 32 0 44.8L459.2 780.8c-6.4 6.4-14.4 9.6-22.4 9.6z" p-id="5473" fill="#ffffff"></path><path d="M836.8 180.8h-80V272c0 27.2-16 48-43.2 48S672 299.2 672 272v-91.2h-118.4V272c0 27.2-16 48-43.2 48-27.2 0-43.2-20.8-43.2-48v-91.2h-116.8V272c0 27.2-16 48-43.2 48s-43.2-20.8-43.2-48v-91.2h-81.6c-44.8 0-78.4 35.2-78.4 78.4v579.2c0 44.8 35.2 78.4 78.4 78.4h652.8c44.8 0 78.4-35.2 78.4-78.4V259.2c3.2-43.2-32-78.4-76.8-78.4z m16 657.6c0 9.6-6.4 16-16 16H184c-9.6 0-16-6.4-16-16V404.8h684.8v433.6z" p-id="5474" fill="#ffffff"></path><path d="M308.8 308.8c-17.6 0-32-14.4-32-32V137.6c0-17.6 14.4-32 32-32s32 14.4 32 32v139.2c0 17.6-14.4 32-32 32zM512 308.8c-17.6 0-32-14.4-32-32V137.6c0-17.6 14.4-32 32-32s32 14.4 32 32v139.2c0 17.6-14.4 32-32 32zM715.2 308.8c-17.6 0-32-14.4-32-32V137.6c0-17.6 14.4-32 32-32s32 14.4 32 32v139.2c0 17.6-14.4 32-32 32z" p-id="5475" fill="#ffffff"></path></svg>