<?xml version="1.0" standalone="no"?><!DOCTYPE svg PUBLIC "-//W3C//DTD SVG 1.1//EN" "http://www.w3.org/Graphics/SVG/1.1/DTD/svg11.dtd"><svg t="1533211463144" class="icon" style="" viewBox="0 0 1024 1024" version="1.1" xmlns="http://www.w3.org/2000/svg" p-id="15770" xmlns:xlink="http://www.w3.org/1999/xlink" width="64" height="64"><defs><style type="text/css"></style></defs><path d="M585.3 802c-39.4 0-77.4-3.4-113.6-10.1-46.4-8.6-89.9-22.7-129.4-42-68.5-33.4-101.7-71.2-103.1-72.8-10.3-11.9-9.7-29.7 1.5-40.9l349.8-349.8c-104-97.2-248.3-140.7-389.1-116.6l-2 0.3c-33.6 5.7-59.9 32.2-65.6 65.7-18.7 110.7 3.8 224 63.5 319 8.8 14 4.6 32.6-9.5 41.4-14 8.8-32.6 4.6-41.4-9.5-67.5-107.6-93-235.7-71.8-360.9 9.9-58.7 56-104.8 114.7-114.9l2-0.3c165-28.2 334.2 25.6 452.6 144 8.4 8.4 13.1 19.7 13.1 31.6 0 12-4.6 23.2-13.1 31.6L305.2 656.5c14.4 11.5 36.5 26.7 66.5 41 34.5 16.4 72.6 28.5 113.4 35.9 51.2 9.3 106.8 11.1 165.1 5.4 16.5-1.6 31.2 10.5 32.8 27s-10.5 31.2-27 32.8c-24.1 2.2-47.7 3.4-70.7 3.4z" fill="#FE4E50" p-id="15771"></path><path d="M740.7 930.8c-4.9 0-9.9-1.2-14.4-3.7-11.7-6.4-17.7-19.8-14.9-32.8 22.9-103.1 27.5-205 13.8-302.8-11.4-80.9-32.8-141.5-48.9-178.1-6.6-15.2 0.3-32.9 15.5-39.5 15.2-6.6 32.9 0.3 39.5 15.5 17.5 40 41 106.2 53.3 193.8 10.5 74.9 11 151.8 1.6 229.8l120.6-120.6c11.7-11.7 30.7-11.7 42.4 0s11.7 30.7 0 42.4L761.9 922c-5.8 5.7-13.5 8.8-21.2 8.8z" fill="#FF9A4C" p-id="15772"></path><path d="M291.2 327.8m-54.1 0a54.1 54.1 0 1 0 108.2 0 54.1 54.1 0 1 0-108.2 0Z" fill="#FFD34C" p-id="15773"></path></svg>