<?xml version="1.0" standalone="no"?><!DOCTYPE svg PUBLIC "-//W3C//DTD SVG 1.1//EN" "http://www.w3.org/Graphics/SVG/1.1/DTD/svg11.dtd"><svg t="1533212032916" class="icon" style="" viewBox="0 0 1024 1024" version="1.1" xmlns="http://www.w3.org/2000/svg" p-id="22241" xmlns:xlink="http://www.w3.org/1999/xlink" width="64" height="64"><defs><style type="text/css"></style></defs><path d="M538.210747 459.007715v470.332218h-52.512821v-470.332218z" fill="#2c2c2c" p-id="22242"></path><path d="M264.778774 543.108138l494.362541 0 0 31.964326-494.362541 0 0-31.964326Z" fill="#2c2c2c" p-id="22243"></path><path d="M293.31835 678.956522l437.283389 0 0 31.964325-437.283389 0 0-31.964325Z" fill="#2c2c2c" p-id="22244"></path><path d="M361.813333 814.804905l300.293423 0 0 31.964326-300.293423 0 0-31.964326Z" fill="#2c2c2c" p-id="22245"></path><path d="M526.326029 906.739855l61.348805 61.348805-22.602191 22.602192-61.348805-61.348805 22.602191-22.602192Z" fill="#2c2c2c" p-id="22246"></path><path d="M521.385781 929.345276l-61.348805 61.348805-22.602191-22.602192 61.348805-61.348805 22.602191 22.602192Z" fill="#2c2c2c" p-id="22247"></path><path d="M514.191839 255.166644m-45.663322 0a45.663322 45.663322 0 1 0 91.326645 0 45.663322 45.663322 0 1 0-91.326645 0Z" fill="#2c2c2c" p-id="22248"></path><path d="M511.577614 74.591037c9.212575 7.991081 21.690078 19.406912 35.959866 33.688116 49.33922 49.544705 81.132308 95.413512 99.100825 125.163166 44.430412 73.529365 70.561249 165.232731 82.125485 213.007982H292.827469c7.808428-41.256812 28.345507-120.539755 79.910814-204.902742 38.813824-63.666087 78.929052-109.158172 105.687759-136.110948 13.288027-13.367938 24.692441-23.630769 33.197236-30.822743m0.376722-35.309163S428.093645 98.267469 349.324415 227.266355s-88.255786 246.58194-88.255786 246.581939h501.782831s-26.541806-144.981048-92.753623-254.573021S511.954337 39.281873 511.954337 39.281873z" fill="#2c2c2c" p-id="22249"></path></svg>